<mxfile host="app.diagrams.net" modified="2021-06-12T17:56:22.474Z" agent="5.0 (Windows NT 10.0; Win64; x64) AppleWebKit/537.36 (KHTML, like Gecko) Chrome/91.0.4472.77 Safari/537.36" etag="MoCMMfYfnHrP8iv_rNJH" version="14.7.6" type="github" pages="3">
  <diagram id="kS6SkZm5IWcq57FLkN7l" name="Restaurant">
    <mxGraphModel dx="782" dy="436" grid="1" gridSize="10" guides="1" tooltips="1" connect="1" arrows="1" fold="1" page="1" pageScale="1" pageWidth="827" pageHeight="1169" math="0" shadow="0">
      <root>
        <mxCell id="0" />
        <mxCell id="1" parent="0" />
        <mxCell id="dV-V2qD9Z5xIXkdcCKD9-1" value="&lt;font style=&quot;font-size: 22px&quot;&gt;users&lt;/font&gt;" style="rounded=1;whiteSpace=wrap;html=1;" parent="1" vertex="1">
          <mxGeometry x="30" y="140" width="120" height="60" as="geometry" />
        </mxCell>
        <mxCell id="dV-V2qD9Z5xIXkdcCKD9-2" value="&lt;font style=&quot;font-size: 22px&quot;&gt;favorites&lt;/font&gt;" style="rounded=1;whiteSpace=wrap;html=1;" parent="1" vertex="1">
          <mxGeometry x="220" y="40" width="120" height="60" as="geometry" />
        </mxCell>
        <mxCell id="dV-V2qD9Z5xIXkdcCKD9-3" value="&lt;font style=&quot;font-size: 22px&quot;&gt;comments&lt;/font&gt;" style="rounded=1;whiteSpace=wrap;html=1;" parent="1" vertex="1">
          <mxGeometry x="220" y="240" width="120" height="60" as="geometry" />
        </mxCell>
        <mxCell id="dV-V2qD9Z5xIXkdcCKD9-4" value="&lt;font style=&quot;font-size: 22px&quot;&gt;restaurants&lt;/font&gt;" style="rounded=1;whiteSpace=wrap;html=1;" parent="1" vertex="1">
          <mxGeometry x="414" y="50" width="140" height="60" as="geometry" />
        </mxCell>
        <mxCell id="dV-V2qD9Z5xIXkdcCKD9-5" style="edgeStyle=orthogonalEdgeStyle;rounded=0;orthogonalLoop=1;jettySize=auto;html=1;exitX=0.5;exitY=1;exitDx=0;exitDy=0;" parent="1" source="dV-V2qD9Z5xIXkdcCKD9-2" target="dV-V2qD9Z5xIXkdcCKD9-2" edge="1">
          <mxGeometry relative="1" as="geometry" />
        </mxCell>
        <mxCell id="dV-V2qD9Z5xIXkdcCKD9-6" value="&lt;font style=&quot;font-size: 22px&quot;&gt;categories&lt;/font&gt;" style="rounded=1;whiteSpace=wrap;html=1;" parent="1" vertex="1">
          <mxGeometry x="620" y="140" width="120" height="60" as="geometry" />
        </mxCell>
        <mxCell id="dV-V2qD9Z5xIXkdcCKD9-7" value="&lt;font style=&quot;font-size: 22px&quot;&gt;PK: id&lt;/font&gt;" style="rounded=1;whiteSpace=wrap;html=1;fillColor=#f8cecc;strokeColor=#b85450;" parent="1" vertex="1">
          <mxGeometry x="30" y="200" width="120" height="40" as="geometry" />
        </mxCell>
        <mxCell id="dV-V2qD9Z5xIXkdcCKD9-8" value="&lt;font style=&quot;font-size: 22px&quot;&gt;name&lt;/font&gt;" style="rounded=1;whiteSpace=wrap;html=1;fillColor=#ffe6cc;strokeColor=#d79b00;" parent="1" vertex="1">
          <mxGeometry x="30" y="240" width="120" height="40" as="geometry" />
        </mxCell>
        <mxCell id="dV-V2qD9Z5xIXkdcCKD9-9" value="&lt;font style=&quot;font-size: 22px&quot;&gt;email&lt;/font&gt;" style="rounded=1;whiteSpace=wrap;html=1;fillColor=#ffe6cc;strokeColor=#d79b00;" parent="1" vertex="1">
          <mxGeometry x="30" y="280" width="120" height="40" as="geometry" />
        </mxCell>
        <mxCell id="dV-V2qD9Z5xIXkdcCKD9-10" value="&lt;font style=&quot;font-size: 22px&quot;&gt;password&lt;/font&gt;" style="rounded=1;whiteSpace=wrap;html=1;fillColor=#ffe6cc;strokeColor=#d79b00;" parent="1" vertex="1">
          <mxGeometry x="30" y="320" width="120" height="40" as="geometry" />
        </mxCell>
        <mxCell id="dV-V2qD9Z5xIXkdcCKD9-11" value="&lt;font style=&quot;font-size: 22px&quot;&gt;image&lt;/font&gt;" style="rounded=1;whiteSpace=wrap;html=1;fillColor=#ffe6cc;strokeColor=#d79b00;" parent="1" vertex="1">
          <mxGeometry x="30" y="360" width="120" height="40" as="geometry" />
        </mxCell>
        <mxCell id="dV-V2qD9Z5xIXkdcCKD9-12" value="&lt;font style=&quot;font-size: 22px&quot;&gt;PK: id&lt;/font&gt;" style="rounded=1;whiteSpace=wrap;html=1;fillColor=#f8cecc;strokeColor=#b85450;" parent="1" vertex="1">
          <mxGeometry x="220" y="100" width="120" height="40" as="geometry" />
        </mxCell>
        <mxCell id="dV-V2qD9Z5xIXkdcCKD9-13" value="&lt;font style=&quot;font-size: 22px&quot;&gt;PK: id&lt;/font&gt;" style="rounded=1;whiteSpace=wrap;html=1;fillColor=#f8cecc;strokeColor=#b85450;" parent="1" vertex="1">
          <mxGeometry x="220" y="300" width="120" height="40" as="geometry" />
        </mxCell>
        <mxCell id="dV-V2qD9Z5xIXkdcCKD9-14" value="&lt;font style=&quot;font-size: 22px&quot;&gt;PK: id&lt;/font&gt;" style="rounded=1;whiteSpace=wrap;html=1;fillColor=#f8cecc;strokeColor=#b85450;" parent="1" vertex="1">
          <mxGeometry x="414" y="110" width="140" height="40" as="geometry" />
        </mxCell>
        <mxCell id="dV-V2qD9Z5xIXkdcCKD9-15" value="&lt;font style=&quot;font-size: 22px&quot;&gt;PK: id&lt;/font&gt;" style="rounded=1;whiteSpace=wrap;html=1;fillColor=#f8cecc;strokeColor=#b85450;" parent="1" vertex="1">
          <mxGeometry x="620" y="200" width="120" height="40" as="geometry" />
        </mxCell>
        <mxCell id="dV-V2qD9Z5xIXkdcCKD9-16" value="&lt;font style=&quot;font-size: 22px&quot;&gt;content&lt;/font&gt;" style="rounded=1;whiteSpace=wrap;html=1;fillColor=#ffe6cc;strokeColor=#d79b00;" parent="1" vertex="1">
          <mxGeometry x="220" y="340" width="120" height="40" as="geometry" />
        </mxCell>
        <mxCell id="dV-V2qD9Z5xIXkdcCKD9-17" value="&lt;font style=&quot;font-size: 18px&quot;&gt;created_at&lt;/font&gt;" style="rounded=1;whiteSpace=wrap;html=1;fillColor=#ffe6cc;strokeColor=#d79b00;" parent="1" vertex="1">
          <mxGeometry x="220" y="380" width="120" height="40" as="geometry" />
        </mxCell>
        <mxCell id="dV-V2qD9Z5xIXkdcCKD9-18" value="&lt;font style=&quot;font-size: 22px&quot;&gt;name&lt;/font&gt;" style="rounded=1;whiteSpace=wrap;html=1;fillColor=#ffe6cc;strokeColor=#d79b00;" parent="1" vertex="1">
          <mxGeometry x="414.5" y="150" width="140" height="40" as="geometry" />
        </mxCell>
        <mxCell id="dV-V2qD9Z5xIXkdcCKD9-19" value="&lt;font style=&quot;font-size: 22px&quot;&gt;name_en&lt;/font&gt;" style="rounded=1;whiteSpace=wrap;html=1;fillColor=#ffe6cc;strokeColor=#d79b00;" parent="1" vertex="1">
          <mxGeometry x="414.5" y="190" width="140" height="40" as="geometry" />
        </mxCell>
        <mxCell id="dV-V2qD9Z5xIXkdcCKD9-20" value="&lt;font style=&quot;font-size: 22px&quot;&gt;image&lt;/font&gt;" style="rounded=1;whiteSpace=wrap;html=1;fillColor=#ffe6cc;strokeColor=#d79b00;" parent="1" vertex="1">
          <mxGeometry x="414.5" y="230" width="140" height="40" as="geometry" />
        </mxCell>
        <mxCell id="dV-V2qD9Z5xIXkdcCKD9-21" value="&lt;font style=&quot;font-size: 22px&quot;&gt;phone&lt;/font&gt;" style="rounded=1;whiteSpace=wrap;html=1;fillColor=#ffe6cc;strokeColor=#d79b00;" parent="1" vertex="1">
          <mxGeometry x="414.5" y="270" width="140" height="40" as="geometry" />
        </mxCell>
        <mxCell id="dV-V2qD9Z5xIXkdcCKD9-22" value="&lt;font style=&quot;font-size: 22px&quot;&gt;address&lt;/font&gt;" style="rounded=1;whiteSpace=wrap;html=1;fillColor=#ffe6cc;strokeColor=#d79b00;" parent="1" vertex="1">
          <mxGeometry x="414.5" y="310" width="140" height="40" as="geometry" />
        </mxCell>
        <mxCell id="dV-V2qD9Z5xIXkdcCKD9-23" value="&lt;font style=&quot;font-size: 22px&quot;&gt;google_map&lt;/font&gt;" style="rounded=1;whiteSpace=wrap;html=1;fillColor=#ffe6cc;strokeColor=#d79b00;" parent="1" vertex="1">
          <mxGeometry x="414.5" y="350" width="140" height="40" as="geometry" />
        </mxCell>
        <mxCell id="dV-V2qD9Z5xIXkdcCKD9-24" value="&lt;font style=&quot;font-size: 22px&quot;&gt;rating&lt;/font&gt;" style="rounded=1;whiteSpace=wrap;html=1;fillColor=#ffe6cc;strokeColor=#d79b00;" parent="1" vertex="1">
          <mxGeometry x="414.5" y="390" width="140" height="40" as="geometry" />
        </mxCell>
        <mxCell id="dV-V2qD9Z5xIXkdcCKD9-25" value="&lt;font style=&quot;font-size: 22px&quot;&gt;description&lt;/font&gt;" style="rounded=1;whiteSpace=wrap;html=1;fillColor=#ffe6cc;strokeColor=#d79b00;" parent="1" vertex="1">
          <mxGeometry x="414.5" y="430" width="140" height="40" as="geometry" />
        </mxCell>
        <mxCell id="dV-V2qD9Z5xIXkdcCKD9-26" value="&lt;font style=&quot;font-size: 22px&quot;&gt;name&lt;/font&gt;" style="rounded=1;whiteSpace=wrap;html=1;fillColor=#ffe6cc;strokeColor=#d79b00;" parent="1" vertex="1">
          <mxGeometry x="620" y="240" width="120" height="40" as="geometry" />
        </mxCell>
        <mxCell id="dV-V2qD9Z5xIXkdcCKD9-27" value="&lt;font style=&quot;font-size: 22px&quot;&gt;FK: user_id&lt;/font&gt;" style="rounded=1;whiteSpace=wrap;html=1;fillColor=#dae8fc;strokeColor=#6c8ebf;" parent="1" vertex="1">
          <mxGeometry x="220" y="140" width="120" height="40" as="geometry" />
        </mxCell>
        <mxCell id="dV-V2qD9Z5xIXkdcCKD9-28" value="&lt;font style=&quot;font-size: 22px&quot;&gt;FK: &lt;/font&gt;&lt;font style=&quot;font-size: 18px&quot;&gt;restaurant_id&lt;/font&gt;" style="rounded=1;whiteSpace=wrap;html=1;fillColor=#dae8fc;strokeColor=#6c8ebf;" parent="1" vertex="1">
          <mxGeometry x="205" y="180" width="150" height="40" as="geometry" />
        </mxCell>
        <mxCell id="dV-V2qD9Z5xIXkdcCKD9-29" value="&lt;font style=&quot;font-size: 22px&quot;&gt;FK: user_id&lt;/font&gt;" style="rounded=1;whiteSpace=wrap;html=1;fillColor=#dae8fc;strokeColor=#6c8ebf;" parent="1" vertex="1">
          <mxGeometry x="220" y="420" width="120" height="40" as="geometry" />
        </mxCell>
        <mxCell id="dV-V2qD9Z5xIXkdcCKD9-30" value="&lt;font style=&quot;font-size: 22px&quot;&gt;FK: &lt;/font&gt;&lt;font style=&quot;font-size: 18px&quot;&gt;restaurant_id&lt;/font&gt;" style="rounded=1;whiteSpace=wrap;html=1;fillColor=#dae8fc;strokeColor=#6c8ebf;" parent="1" vertex="1">
          <mxGeometry x="205" y="460" width="150" height="40" as="geometry" />
        </mxCell>
        <mxCell id="dV-V2qD9Z5xIXkdcCKD9-31" value="&lt;font style=&quot;font-size: 22px&quot;&gt;FK: &lt;/font&gt;&lt;font style=&quot;font-size: 18px&quot;&gt;category_id&lt;/font&gt;" style="rounded=1;whiteSpace=wrap;html=1;fillColor=#dae8fc;strokeColor=#6c8ebf;" parent="1" vertex="1">
          <mxGeometry x="414.5" y="470" width="140" height="40" as="geometry" />
        </mxCell>
        <mxCell id="dV-V2qD9Z5xIXkdcCKD9-33" value="" style="endArrow=classic;html=1;exitX=1;exitY=0.25;exitDx=0;exitDy=0;entryX=0;entryY=0.5;entryDx=0;entryDy=0;rounded=0;strokeColor=#000099;" parent="1" source="dV-V2qD9Z5xIXkdcCKD9-7" target="dV-V2qD9Z5xIXkdcCKD9-27" edge="1">
          <mxGeometry width="50" height="50" relative="1" as="geometry">
            <mxPoint x="340" y="340" as="sourcePoint" />
            <mxPoint x="390" y="290" as="targetPoint" />
            <Array as="points">
              <mxPoint x="170" y="210" />
              <mxPoint x="180" y="210" />
              <mxPoint x="180" y="160" />
              <mxPoint x="190" y="160" />
            </Array>
          </mxGeometry>
        </mxCell>
        <mxCell id="dV-V2qD9Z5xIXkdcCKD9-34" value="" style="endArrow=classic;html=1;exitX=1;exitY=0.75;exitDx=0;exitDy=0;entryX=0;entryY=0.5;entryDx=0;entryDy=0;rounded=0;strokeColor=#000099;" parent="1" source="dV-V2qD9Z5xIXkdcCKD9-7" target="dV-V2qD9Z5xIXkdcCKD9-29" edge="1">
          <mxGeometry width="50" height="50" relative="1" as="geometry">
            <mxPoint x="160" y="220" as="sourcePoint" />
            <mxPoint x="230" y="170" as="targetPoint" />
            <Array as="points">
              <mxPoint x="170" y="230" />
              <mxPoint x="180" y="230" />
              <mxPoint x="180" y="440" />
              <mxPoint x="190" y="440" />
            </Array>
          </mxGeometry>
        </mxCell>
        <mxCell id="dV-V2qD9Z5xIXkdcCKD9-35" value="" style="endArrow=classic;html=1;exitX=0;exitY=0.25;exitDx=0;exitDy=0;entryX=1;entryY=0.5;entryDx=0;entryDy=0;rounded=0;strokeColor=#000099;" parent="1" source="dV-V2qD9Z5xIXkdcCKD9-14" target="dV-V2qD9Z5xIXkdcCKD9-28" edge="1">
          <mxGeometry width="50" height="50" relative="1" as="geometry">
            <mxPoint x="160" y="220" as="sourcePoint" />
            <mxPoint x="229.9999999999999" y="170" as="targetPoint" />
            <Array as="points">
              <mxPoint x="380" y="120" />
              <mxPoint x="380" y="200" />
            </Array>
          </mxGeometry>
        </mxCell>
        <mxCell id="dV-V2qD9Z5xIXkdcCKD9-36" value="" style="endArrow=classic;html=1;exitX=0;exitY=0.75;exitDx=0;exitDy=0;entryX=1;entryY=0.5;entryDx=0;entryDy=0;rounded=0;strokeColor=#000099;" parent="1" source="dV-V2qD9Z5xIXkdcCKD9-14" target="dV-V2qD9Z5xIXkdcCKD9-30" edge="1">
          <mxGeometry width="50" height="50" relative="1" as="geometry">
            <mxPoint x="424" y="130.00000000000006" as="sourcePoint" />
            <mxPoint x="364.9999999999999" y="210" as="targetPoint" />
            <Array as="points">
              <mxPoint x="390" y="140" />
              <mxPoint x="390" y="480" />
            </Array>
          </mxGeometry>
        </mxCell>
        <mxCell id="dV-V2qD9Z5xIXkdcCKD9-37" value="" style="endArrow=classic;html=1;exitX=0;exitY=0.5;exitDx=0;exitDy=0;entryX=1;entryY=0.5;entryDx=0;entryDy=0;rounded=0;strokeColor=#000099;" parent="1" source="dV-V2qD9Z5xIXkdcCKD9-15" target="dV-V2qD9Z5xIXkdcCKD9-31" edge="1">
          <mxGeometry width="50" height="50" relative="1" as="geometry">
            <mxPoint x="572" y="181.00000000000006" as="sourcePoint" />
            <mxPoint x="512.9999999999999" y="261" as="targetPoint" />
            <Array as="points">
              <mxPoint x="590" y="220" />
              <mxPoint x="590" y="490" />
            </Array>
          </mxGeometry>
        </mxCell>
        <mxCell id="dV-V2qD9Z5xIXkdcCKD9-38" value="&lt;font style=&quot;font-size: 18px&quot; color=&quot;#000066&quot;&gt;&lt;b&gt;1&lt;/b&gt;&lt;/font&gt;" style="text;html=1;strokeColor=none;fillColor=none;align=center;verticalAlign=middle;whiteSpace=wrap;rounded=0;" parent="1" vertex="1">
          <mxGeometry x="590" y="200" width="40" height="20" as="geometry" />
        </mxCell>
        <mxCell id="dV-V2qD9Z5xIXkdcCKD9-39" value="&lt;font style=&quot;font-size: 18px&quot; color=&quot;#000066&quot;&gt;&lt;b&gt;1&lt;/b&gt;&lt;/font&gt;" style="text;html=1;strokeColor=none;fillColor=none;align=center;verticalAlign=middle;whiteSpace=wrap;rounded=0;" parent="1" vertex="1">
          <mxGeometry x="380" y="100" width="40" height="20" as="geometry" />
        </mxCell>
        <mxCell id="dV-V2qD9Z5xIXkdcCKD9-40" value="&lt;font style=&quot;font-size: 18px&quot; color=&quot;#000066&quot;&gt;&lt;b&gt;1&lt;/b&gt;&lt;/font&gt;" style="text;html=1;strokeColor=none;fillColor=none;align=center;verticalAlign=middle;whiteSpace=wrap;rounded=0;" parent="1" vertex="1">
          <mxGeometry x="383" y="146" width="40" height="20" as="geometry" />
        </mxCell>
        <mxCell id="dV-V2qD9Z5xIXkdcCKD9-41" value="&lt;font style=&quot;font-size: 18px&quot; color=&quot;#000066&quot;&gt;&lt;b&gt;1&lt;/b&gt;&lt;/font&gt;" style="text;html=1;strokeColor=none;fillColor=none;align=center;verticalAlign=middle;whiteSpace=wrap;rounded=0;" parent="1" vertex="1">
          <mxGeometry x="142" y="190" width="40" height="20" as="geometry" />
        </mxCell>
        <mxCell id="dV-V2qD9Z5xIXkdcCKD9-42" value="&lt;font style=&quot;font-size: 18px&quot; color=&quot;#000066&quot;&gt;&lt;b&gt;1&lt;/b&gt;&lt;/font&gt;" style="text;html=1;strokeColor=none;fillColor=none;align=center;verticalAlign=middle;whiteSpace=wrap;rounded=0;" parent="1" vertex="1">
          <mxGeometry x="142" y="232" width="40" height="20" as="geometry" />
        </mxCell>
        <mxCell id="dV-V2qD9Z5xIXkdcCKD9-43" value="&lt;font style=&quot;font-size: 18px&quot; color=&quot;#000066&quot;&gt;&lt;b&gt;M&lt;/b&gt;&lt;/font&gt;" style="text;html=1;strokeColor=none;fillColor=none;align=center;verticalAlign=middle;whiteSpace=wrap;rounded=0;" parent="1" vertex="1">
          <mxGeometry x="180" y="140" width="40" height="20" as="geometry" />
        </mxCell>
        <mxCell id="dV-V2qD9Z5xIXkdcCKD9-44" value="&lt;font style=&quot;font-size: 18px&quot; color=&quot;#000066&quot;&gt;&lt;b&gt;M&lt;/b&gt;&lt;/font&gt;" style="text;html=1;strokeColor=none;fillColor=none;align=center;verticalAlign=middle;whiteSpace=wrap;rounded=0;" parent="1" vertex="1">
          <mxGeometry x="182" y="420" width="40" height="20" as="geometry" />
        </mxCell>
        <mxCell id="dV-V2qD9Z5xIXkdcCKD9-45" value="&lt;font style=&quot;font-size: 18px&quot; color=&quot;#000066&quot;&gt;&lt;b&gt;M&lt;/b&gt;&lt;/font&gt;" style="text;html=1;strokeColor=none;fillColor=none;align=center;verticalAlign=middle;whiteSpace=wrap;rounded=0;" parent="1" vertex="1">
          <mxGeometry x="355" y="456" width="40" height="20" as="geometry" />
        </mxCell>
        <mxCell id="dV-V2qD9Z5xIXkdcCKD9-46" value="&lt;font style=&quot;font-size: 18px&quot; color=&quot;#000066&quot;&gt;&lt;b&gt;M&lt;/b&gt;&lt;/font&gt;" style="text;html=1;strokeColor=none;fillColor=none;align=center;verticalAlign=middle;whiteSpace=wrap;rounded=0;" parent="1" vertex="1">
          <mxGeometry x="346" y="176" width="40" height="20" as="geometry" />
        </mxCell>
        <mxCell id="dV-V2qD9Z5xIXkdcCKD9-47" value="&lt;font style=&quot;font-size: 18px&quot; color=&quot;#000066&quot;&gt;&lt;b&gt;M&lt;/b&gt;&lt;/font&gt;" style="text;html=1;strokeColor=none;fillColor=none;align=center;verticalAlign=middle;whiteSpace=wrap;rounded=0;" parent="1" vertex="1">
          <mxGeometry x="554" y="468" width="40" height="20" as="geometry" />
        </mxCell>
      </root>
    </mxGraphModel>
  </diagram>
  <diagram id="KM84M90KUWdKLNLCQ_kI" name="Tea shop">
    <mxGraphModel dx="782" dy="436" grid="1" gridSize="10" guides="1" tooltips="1" connect="1" arrows="1" fold="1" page="1" pageScale="1" pageWidth="827" pageHeight="1169" math="0" shadow="0">
      <root>
        <mxCell id="hRv99n9wK5O6T0AMNgLs-0" />
        <mxCell id="hRv99n9wK5O6T0AMNgLs-1" parent="hRv99n9wK5O6T0AMNgLs-0" />
        <mxCell id="hRv99n9wK5O6T0AMNgLs-2" value="&lt;font style=&quot;font-size: 22px&quot;&gt;orders&lt;/font&gt;" style="rounded=0;whiteSpace=wrap;html=1;fillColor=#f5f5f5;strokeColor=#666666;fontColor=#333333;" parent="hRv99n9wK5O6T0AMNgLs-1" vertex="1">
          <mxGeometry x="354" y="120" width="120" height="50" as="geometry" />
        </mxCell>
        <mxCell id="hRv99n9wK5O6T0AMNgLs-3" value="&lt;font style=&quot;font-size: 22px&quot;&gt;drinks&lt;/font&gt;" style="rounded=0;whiteSpace=wrap;html=1;fillColor=#f5f5f5;strokeColor=#666666;fontColor=#333333;" parent="hRv99n9wK5O6T0AMNgLs-1" vertex="1">
          <mxGeometry x="110" y="120" width="120" height="50" as="geometry" />
        </mxCell>
        <mxCell id="hRv99n9wK5O6T0AMNgLs-4" value="&lt;font style=&quot;font-size: 22px&quot;&gt;customers&lt;/font&gt;" style="rounded=0;whiteSpace=wrap;html=1;fillColor=#f5f5f5;strokeColor=#666666;fontColor=#333333;" parent="hRv99n9wK5O6T0AMNgLs-1" vertex="1">
          <mxGeometry x="590" y="120" width="120" height="50" as="geometry" />
        </mxCell>
        <mxCell id="hRv99n9wK5O6T0AMNgLs-5" value="&lt;font style=&quot;font-size: 22px&quot;&gt;PK: id&lt;/font&gt;" style="rounded=1;whiteSpace=wrap;html=1;fillColor=#f8cecc;strokeColor=#b85450;" parent="hRv99n9wK5O6T0AMNgLs-1" vertex="1">
          <mxGeometry x="110" y="170" width="120" height="30" as="geometry" />
        </mxCell>
        <mxCell id="hRv99n9wK5O6T0AMNgLs-6" value="&lt;font style=&quot;font-size: 22px&quot;&gt;name&lt;/font&gt;&lt;span style=&quot;color: rgba(0 , 0 , 0 , 0) ; font-family: monospace ; font-size: 0px&quot;&gt;%3CmxGraphModel%3E%3Croot%3E%3CmxCell%20id%3D%220%22%2F%3E%3CmxCell%20id%3D%221%22%20parent%3D%220%22%2F%3E%3CmxCell%20id%3D%222%22%20value%3D%22%26lt%3Bfont%20style%3D%26quot%3Bfont-size%3A%2022px%26quot%3B%26gt%3BPK%3A%20id%26lt%3B%2Ffont%26gt%3B%22%20style%3D%22rounded%3D1%3BwhiteSpace%3Dwrap%3Bhtml%3D1%3BfillColor%3D%23f8cecc%3BstrokeColor%3D%23b85450%3B%22%20vertex%3D%221%22%20parent%3D%221%22%3E%3CmxGeometry%20x%3D%22110%22%20y%3D%22170%22%20width%3D%22120%22%20height%3D%2230%22%20as%3D%22geometry%22%2F%3E%3C%2FmxCell%3E%3C%2Froot%3E%3C%2FmxGraphModel%3E&lt;/span&gt;" style="rounded=1;whiteSpace=wrap;html=1;fillColor=#ffe6cc;strokeColor=#d79b00;" parent="hRv99n9wK5O6T0AMNgLs-1" vertex="1">
          <mxGeometry x="110" y="200" width="120" height="30" as="geometry" />
        </mxCell>
        <mxCell id="hRv99n9wK5O6T0AMNgLs-7" value="&lt;font style=&quot;font-size: 22px&quot;&gt;price&lt;/font&gt;&lt;span style=&quot;color: rgba(0 , 0 , 0 , 0) ; font-family: monospace ; font-size: 0px&quot;&gt;%3CmxGraphModel%3E%3Croot%3E%3CmxCell%20id%3D%220%22%2F%3E%3CmxCell%20id%3D%221%22%20parent%3D%220%22%2F%3E%3CmxCell%20id%3D%222%22%20value%3D%22%26lt%3Bfont%20style%3D%26quot%3Bfont-size%3A%2022px%26quot%3B%26gt%3BPK%3A%20id%26lt%3B%2Ffont%26gt%3B%22%20style%3D%22rounded%3D1%3BwhiteSpace%3Dwrap%3Bhtml%3D1%3BfillColor%3D%23f8cecc%3BstrokeColor%3D%23b85450%3B%22%20vertex%3D%221%22%20parent%3D%221%22%3E%3CmxGeometry%20x%3D%22110%22%20y%3D%22170%22%20width%3D%22120%22%20height%3D%2230%22%20as%3D%22geometry%22%2F%3E%3C%2FmxCell%3E%3C%2Froot%3E%3C%2FmxGraphModel%3E&lt;/span&gt;" style="rounded=1;whiteSpace=wrap;html=1;fillColor=#ffe6cc;strokeColor=#d79b00;" parent="hRv99n9wK5O6T0AMNgLs-1" vertex="1">
          <mxGeometry x="110" y="230" width="120" height="30" as="geometry" />
        </mxCell>
        <mxCell id="hRv99n9wK5O6T0AMNgLs-8" value="&lt;span style=&quot;font-size: 22px&quot;&gt;cost&lt;/span&gt;" style="rounded=1;whiteSpace=wrap;html=1;fillColor=#ffe6cc;strokeColor=#d79b00;" parent="hRv99n9wK5O6T0AMNgLs-1" vertex="1">
          <mxGeometry x="110" y="260" width="120" height="30" as="geometry" />
        </mxCell>
        <mxCell id="hRv99n9wK5O6T0AMNgLs-9" value="&lt;font style=&quot;font-size: 22px&quot;&gt;PK: id&lt;/font&gt;" style="rounded=1;whiteSpace=wrap;html=1;fillColor=#f8cecc;strokeColor=#b85450;" parent="hRv99n9wK5O6T0AMNgLs-1" vertex="1">
          <mxGeometry x="354" y="170" width="120" height="30" as="geometry" />
        </mxCell>
        <mxCell id="hRv99n9wK5O6T0AMNgLs-10" value="&lt;font style=&quot;font-size: 22px&quot;&gt;PK: id&lt;/font&gt;" style="rounded=1;whiteSpace=wrap;html=1;fillColor=#f8cecc;strokeColor=#b85450;" parent="hRv99n9wK5O6T0AMNgLs-1" vertex="1">
          <mxGeometry x="590" y="170" width="120" height="30" as="geometry" />
        </mxCell>
        <mxCell id="hRv99n9wK5O6T0AMNgLs-11" value="&lt;font style=&quot;font-size: 22px&quot;&gt;FK: &lt;/font&gt;&lt;font style=&quot;font-size: 20px&quot;&gt;drink_id&lt;/font&gt;" style="rounded=1;whiteSpace=wrap;html=1;fillColor=#dae8fc;strokeColor=#6c8ebf;" parent="hRv99n9wK5O6T0AMNgLs-1" vertex="1">
          <mxGeometry x="354" y="200" width="120" height="30" as="geometry" />
        </mxCell>
        <mxCell id="hRv99n9wK5O6T0AMNgLs-12" value="&lt;font style=&quot;font-size: 22px&quot;&gt;FK: &lt;/font&gt;&lt;font style=&quot;font-size: 18px&quot;&gt;&lt;font style=&quot;font-size: 18px&quot;&gt;customer&lt;/font&gt;&lt;font style=&quot;font-size: 18px&quot;&gt;_id&lt;/font&gt;&lt;/font&gt;" style="rounded=1;whiteSpace=wrap;html=1;fillColor=#dae8fc;strokeColor=#6c8ebf;" parent="hRv99n9wK5O6T0AMNgLs-1" vertex="1">
          <mxGeometry x="337.5" y="230" width="153" height="30" as="geometry" />
        </mxCell>
        <mxCell id="hRv99n9wK5O6T0AMNgLs-13" value="&lt;span style=&quot;font-size: 22px&quot;&gt;quantity&lt;/span&gt;" style="rounded=1;whiteSpace=wrap;html=1;fillColor=#ffe6cc;strokeColor=#d79b00;" parent="hRv99n9wK5O6T0AMNgLs-1" vertex="1">
          <mxGeometry x="354" y="260" width="120" height="30" as="geometry" />
        </mxCell>
        <mxCell id="hRv99n9wK5O6T0AMNgLs-14" value="&lt;span style=&quot;font-size: 22px&quot;&gt;created_at&lt;/span&gt;" style="rounded=1;whiteSpace=wrap;html=1;fillColor=#ffe6cc;strokeColor=#d79b00;" parent="hRv99n9wK5O6T0AMNgLs-1" vertex="1">
          <mxGeometry x="354" y="290" width="120" height="30" as="geometry" />
        </mxCell>
        <mxCell id="hRv99n9wK5O6T0AMNgLs-15" value="&lt;span style=&quot;font-size: 22px&quot;&gt;name&lt;/span&gt;" style="rounded=1;whiteSpace=wrap;html=1;fillColor=#ffe6cc;strokeColor=#d79b00;" parent="hRv99n9wK5O6T0AMNgLs-1" vertex="1">
          <mxGeometry x="590" y="200" width="120" height="30" as="geometry" />
        </mxCell>
        <mxCell id="hRv99n9wK5O6T0AMNgLs-16" value="&lt;span style=&quot;font-size: 22px&quot;&gt;phone&lt;/span&gt;" style="rounded=1;whiteSpace=wrap;html=1;fillColor=#ffe6cc;strokeColor=#d79b00;" parent="hRv99n9wK5O6T0AMNgLs-1" vertex="1">
          <mxGeometry x="590" y="230" width="120" height="30" as="geometry" />
        </mxCell>
        <mxCell id="hRv99n9wK5O6T0AMNgLs-17" value="&lt;span style=&quot;font-size: 22px&quot;&gt;birthday&lt;/span&gt;" style="rounded=1;whiteSpace=wrap;html=1;fillColor=#ffe6cc;strokeColor=#d79b00;" parent="hRv99n9wK5O6T0AMNgLs-1" vertex="1">
          <mxGeometry x="590" y="260" width="120" height="30" as="geometry" />
        </mxCell>
        <mxCell id="hRv99n9wK5O6T0AMNgLs-18" value="" style="endArrow=classic;html=1;rounded=0;exitX=1;exitY=0.5;exitDx=0;exitDy=0;entryX=0;entryY=0.5;entryDx=0;entryDy=0;" parent="hRv99n9wK5O6T0AMNgLs-1" source="hRv99n9wK5O6T0AMNgLs-5" target="hRv99n9wK5O6T0AMNgLs-11" edge="1">
          <mxGeometry width="50" height="50" relative="1" as="geometry">
            <mxPoint x="390" y="130" as="sourcePoint" />
            <mxPoint x="440" y="80" as="targetPoint" />
            <Array as="points">
              <mxPoint x="290" y="185" />
              <mxPoint x="290" y="215" />
            </Array>
          </mxGeometry>
        </mxCell>
        <mxCell id="hRv99n9wK5O6T0AMNgLs-19" value="" style="endArrow=classic;html=1;rounded=0;exitX=0;exitY=0.5;exitDx=0;exitDy=0;entryX=1;entryY=0.5;entryDx=0;entryDy=0;" parent="hRv99n9wK5O6T0AMNgLs-1" source="hRv99n9wK5O6T0AMNgLs-10" target="hRv99n9wK5O6T0AMNgLs-12" edge="1">
          <mxGeometry width="50" height="50" relative="1" as="geometry">
            <mxPoint x="388" y="195" as="sourcePoint" />
            <mxPoint x="512" y="225" as="targetPoint" />
            <Array as="points">
              <mxPoint x="540" y="185" />
              <mxPoint x="540" y="245" />
            </Array>
          </mxGeometry>
        </mxCell>
      </root>
    </mxGraphModel>
  </diagram>
  <diagram id="oPyh9Ps3gZfj7OHS39t5" name="Simple Twitter">
    <mxGraphModel dx="1117" dy="623" grid="1" gridSize="10" guides="1" tooltips="1" connect="1" arrows="1" fold="1" page="1" pageScale="1" pageWidth="827" pageHeight="1169" math="0" shadow="0">
      <root>
        <mxCell id="lAcjd4QDv3iJvigD0zD8-0" />
        <mxCell id="lAcjd4QDv3iJvigD0zD8-1" parent="lAcjd4QDv3iJvigD0zD8-0" />
        <mxCell id="lAcjd4QDv3iJvigD0zD8-38" value="&lt;font style=&quot;font-size: 22px&quot;&gt;users&lt;/font&gt;" style="rounded=0;whiteSpace=wrap;html=1;" vertex="1" parent="lAcjd4QDv3iJvigD0zD8-1">
          <mxGeometry x="291" y="40" width="120" height="60" as="geometry" />
        </mxCell>
        <mxCell id="lAcjd4QDv3iJvigD0zD8-39" value="&lt;font style=&quot;font-size: 22px&quot;&gt;likes&lt;/font&gt;" style="rounded=0;whiteSpace=wrap;html=1;" vertex="1" parent="lAcjd4QDv3iJvigD0zD8-1">
          <mxGeometry x="81" y="160" width="120" height="60" as="geometry" />
        </mxCell>
        <mxCell id="lAcjd4QDv3iJvigD0zD8-40" value="&lt;font style=&quot;font-size: 22px&quot;&gt;follows&lt;/font&gt;" style="rounded=0;whiteSpace=wrap;html=1;" vertex="1" parent="lAcjd4QDv3iJvigD0zD8-1">
          <mxGeometry x="531" y="160" width="120" height="60" as="geometry" />
        </mxCell>
        <mxCell id="lAcjd4QDv3iJvigD0zD8-41" value="&lt;font style=&quot;font-size: 22px&quot;&gt;tweets&lt;/font&gt;" style="rounded=0;whiteSpace=wrap;html=1;" vertex="1" parent="lAcjd4QDv3iJvigD0zD8-1">
          <mxGeometry x="81" y="360" width="120" height="60" as="geometry" />
        </mxCell>
        <mxCell id="lAcjd4QDv3iJvigD0zD8-42" value="&lt;font style=&quot;font-size: 22px&quot;&gt;comments&lt;/font&gt;" style="rounded=0;whiteSpace=wrap;html=1;" vertex="1" parent="lAcjd4QDv3iJvigD0zD8-1">
          <mxGeometry x="531" y="360" width="120" height="60" as="geometry" />
        </mxCell>
        <mxCell id="lAcjd4QDv3iJvigD0zD8-43" value="&lt;font style=&quot;font-size: 22px&quot;&gt;admins&lt;/font&gt;" style="rounded=0;whiteSpace=wrap;html=1;" vertex="1" parent="lAcjd4QDv3iJvigD0zD8-1">
          <mxGeometry x="690" y="55" width="120" height="60" as="geometry" />
        </mxCell>
        <mxCell id="lAcjd4QDv3iJvigD0zD8-44" value="&lt;font style=&quot;font-size: 16px&quot;&gt;name&lt;/font&gt;" style="rounded=1;whiteSpace=wrap;html=1;fillColor=#ffe6cc;strokeColor=#d79b00;" vertex="1" parent="lAcjd4QDv3iJvigD0zD8-1">
          <mxGeometry x="291" y="100" width="120" height="30" as="geometry" />
        </mxCell>
        <mxCell id="lAcjd4QDv3iJvigD0zD8-45" value="&lt;font style=&quot;font-size: 16px&quot;&gt;account&lt;/font&gt;" style="rounded=1;whiteSpace=wrap;html=1;fillColor=#ffe6cc;strokeColor=#d79b00;" vertex="1" parent="lAcjd4QDv3iJvigD0zD8-1">
          <mxGeometry x="291" y="130" width="120" height="30" as="geometry" />
        </mxCell>
        <mxCell id="lAcjd4QDv3iJvigD0zD8-46" value="&lt;font style=&quot;font-size: 16px&quot;&gt;email&lt;/font&gt;" style="rounded=1;whiteSpace=wrap;html=1;fillColor=#ffe6cc;strokeColor=#d79b00;" vertex="1" parent="lAcjd4QDv3iJvigD0zD8-1">
          <mxGeometry x="291" y="160" width="120" height="30" as="geometry" />
        </mxCell>
        <mxCell id="lAcjd4QDv3iJvigD0zD8-47" value="&lt;font style=&quot;font-size: 16px&quot;&gt;password&lt;/font&gt;" style="rounded=1;whiteSpace=wrap;html=1;fillColor=#ffe6cc;strokeColor=#d79b00;" vertex="1" parent="lAcjd4QDv3iJvigD0zD8-1">
          <mxGeometry x="291" y="190" width="120" height="30" as="geometry" />
        </mxCell>
        <mxCell id="lAcjd4QDv3iJvigD0zD8-48" value="&lt;font style=&quot;font-size: 16px&quot;&gt;image&lt;/font&gt;" style="rounded=1;whiteSpace=wrap;html=1;fillColor=#ffe6cc;strokeColor=#d79b00;" vertex="1" parent="lAcjd4QDv3iJvigD0zD8-1">
          <mxGeometry x="291" y="220" width="120" height="30" as="geometry" />
        </mxCell>
        <mxCell id="lAcjd4QDv3iJvigD0zD8-49" value="&lt;font style=&quot;font-size: 16px&quot;&gt;background_img&lt;/font&gt;" style="rounded=1;whiteSpace=wrap;html=1;fillColor=#ffe6cc;strokeColor=#d79b00;" vertex="1" parent="lAcjd4QDv3iJvigD0zD8-1">
          <mxGeometry x="291" y="250" width="120" height="30" as="geometry" />
        </mxCell>
        <mxCell id="lAcjd4QDv3iJvigD0zD8-50" value="&lt;font style=&quot;font-size: 16px&quot;&gt;description&lt;/font&gt;" style="rounded=1;whiteSpace=wrap;html=1;fillColor=#ffe6cc;strokeColor=#d79b00;" vertex="1" parent="lAcjd4QDv3iJvigD0zD8-1">
          <mxGeometry x="291" y="280" width="120" height="30" as="geometry" />
        </mxCell>
        <mxCell id="lAcjd4QDv3iJvigD0zD8-51" value="&lt;font style=&quot;font-size: 16px&quot;&gt;created_at&lt;/font&gt;" style="rounded=1;whiteSpace=wrap;html=1;fillColor=#ffe6cc;strokeColor=#d79b00;" vertex="1" parent="lAcjd4QDv3iJvigD0zD8-1">
          <mxGeometry x="291" y="310" width="120" height="30" as="geometry" />
        </mxCell>
        <mxCell id="lAcjd4QDv3iJvigD0zD8-52" value="&lt;font style=&quot;font-size: 16px&quot;&gt;updated_at&lt;/font&gt;" style="rounded=1;whiteSpace=wrap;html=1;fillColor=#ffe6cc;strokeColor=#d79b00;" vertex="1" parent="lAcjd4QDv3iJvigD0zD8-1">
          <mxGeometry x="291" y="340" width="120" height="30" as="geometry" />
        </mxCell>
        <mxCell id="lAcjd4QDv3iJvigD0zD8-53" value="&lt;font style=&quot;font-size: 16px&quot;&gt;deleted_at&lt;/font&gt;" style="rounded=1;whiteSpace=wrap;html=1;fillColor=#ffe6cc;strokeColor=#d79b00;" vertex="1" parent="lAcjd4QDv3iJvigD0zD8-1">
          <mxGeometry x="291" y="370" width="120" height="30" as="geometry" />
        </mxCell>
        <mxCell id="lAcjd4QDv3iJvigD0zD8-54" value="&lt;font style=&quot;font-size: 16px&quot;&gt;name&lt;/font&gt;" style="rounded=1;whiteSpace=wrap;html=1;fillColor=#ffe6cc;strokeColor=#d79b00;" vertex="1" parent="lAcjd4QDv3iJvigD0zD8-1">
          <mxGeometry x="690" y="115" width="120" height="30" as="geometry" />
        </mxCell>
        <mxCell id="lAcjd4QDv3iJvigD0zD8-55" value="&lt;font style=&quot;font-size: 16px&quot;&gt;account&lt;/font&gt;" style="rounded=1;whiteSpace=wrap;html=1;fillColor=#ffe6cc;strokeColor=#d79b00;" vertex="1" parent="lAcjd4QDv3iJvigD0zD8-1">
          <mxGeometry x="690" y="145" width="120" height="30" as="geometry" />
        </mxCell>
        <mxCell id="lAcjd4QDv3iJvigD0zD8-56" value="&lt;font style=&quot;font-size: 16px&quot;&gt;email&lt;/font&gt;" style="rounded=1;whiteSpace=wrap;html=1;fillColor=#ffe6cc;strokeColor=#d79b00;" vertex="1" parent="lAcjd4QDv3iJvigD0zD8-1">
          <mxGeometry x="690" y="175" width="120" height="30" as="geometry" />
        </mxCell>
        <mxCell id="lAcjd4QDv3iJvigD0zD8-57" value="&lt;font style=&quot;font-size: 16px&quot;&gt;password&lt;/font&gt;" style="rounded=1;whiteSpace=wrap;html=1;fillColor=#ffe6cc;strokeColor=#d79b00;" vertex="1" parent="lAcjd4QDv3iJvigD0zD8-1">
          <mxGeometry x="690" y="205" width="120" height="30" as="geometry" />
        </mxCell>
        <mxCell id="lAcjd4QDv3iJvigD0zD8-58" value="&lt;font style=&quot;font-size: 16px&quot;&gt;image&lt;/font&gt;" style="rounded=1;whiteSpace=wrap;html=1;fillColor=#ffe6cc;strokeColor=#d79b00;" vertex="1" parent="lAcjd4QDv3iJvigD0zD8-1">
          <mxGeometry x="690" y="235" width="120" height="30" as="geometry" />
        </mxCell>
        <mxCell id="lAcjd4QDv3iJvigD0zD8-61" value="&lt;font style=&quot;font-size: 16px&quot;&gt;created_at&lt;/font&gt;" style="rounded=1;whiteSpace=wrap;html=1;fillColor=#ffe6cc;strokeColor=#d79b00;" vertex="1" parent="lAcjd4QDv3iJvigD0zD8-1">
          <mxGeometry x="690" y="265" width="120" height="30" as="geometry" />
        </mxCell>
        <mxCell id="lAcjd4QDv3iJvigD0zD8-63" value="&lt;font style=&quot;font-size: 16px&quot;&gt;deleted_at&lt;/font&gt;" style="rounded=1;whiteSpace=wrap;html=1;fillColor=#ffe6cc;strokeColor=#d79b00;" vertex="1" parent="lAcjd4QDv3iJvigD0zD8-1">
          <mxGeometry x="690" y="295" width="120" height="30" as="geometry" />
        </mxCell>
        <mxCell id="lAcjd4QDv3iJvigD0zD8-64" value="&lt;font style=&quot;font-size: 16px&quot;&gt;PK: id&lt;/font&gt;" style="rounded=1;whiteSpace=wrap;html=1;fillColor=#f8cecc;strokeColor=#b85450;" vertex="1" parent="lAcjd4QDv3iJvigD0zD8-1">
          <mxGeometry x="690" y="325" width="120" height="30" as="geometry" />
        </mxCell>
        <mxCell id="lAcjd4QDv3iJvigD0zD8-81" value="" style="edgeStyle=orthogonalEdgeStyle;rounded=0;orthogonalLoop=1;jettySize=auto;html=1;entryX=1;entryY=0.5;entryDx=0;entryDy=0;exitX=0;exitY=0.25;exitDx=0;exitDy=0;" edge="1" parent="lAcjd4QDv3iJvigD0zD8-1" source="lAcjd4QDv3iJvigD0zD8-65" target="lAcjd4QDv3iJvigD0zD8-79">
          <mxGeometry relative="1" as="geometry">
            <Array as="points">
              <mxPoint x="291" y="415" />
              <mxPoint x="251" y="415" />
              <mxPoint x="251" y="265" />
            </Array>
          </mxGeometry>
        </mxCell>
        <mxCell id="lAcjd4QDv3iJvigD0zD8-97" value="" style="edgeStyle=orthogonalEdgeStyle;rounded=0;orthogonalLoop=1;jettySize=auto;html=1;entryX=0;entryY=0.5;entryDx=0;entryDy=0;exitX=0.997;exitY=0.678;exitDx=0;exitDy=0;exitPerimeter=0;" edge="1" parent="lAcjd4QDv3iJvigD0zD8-1" source="lAcjd4QDv3iJvigD0zD8-65" target="lAcjd4QDv3iJvigD0zD8-96">
          <mxGeometry relative="1" as="geometry">
            <Array as="points">
              <mxPoint x="481" y="420" />
              <mxPoint x="481" y="585" />
            </Array>
          </mxGeometry>
        </mxCell>
        <mxCell id="r-C9Oc5S5O7B7vPJe_3U-7" value="" style="edgeStyle=orthogonalEdgeStyle;rounded=0;orthogonalLoop=1;jettySize=auto;html=1;entryX=0;entryY=0.5;entryDx=0;entryDy=0;startArrow=none;" edge="1" parent="lAcjd4QDv3iJvigD0zD8-1" target="r-C9Oc5S5O7B7vPJe_3U-0">
          <mxGeometry relative="1" as="geometry">
            <mxPoint x="481" y="278" as="sourcePoint" />
            <mxPoint x="491" y="445" as="targetPoint" />
            <Array as="points">
              <mxPoint x="481" y="265" />
            </Array>
          </mxGeometry>
        </mxCell>
        <mxCell id="OD_EQrSQqGv5YOoiEvNP-1" value="" style="edgeStyle=orthogonalEdgeStyle;rounded=0;orthogonalLoop=1;jettySize=auto;html=1;" edge="1" parent="lAcjd4QDv3iJvigD0zD8-1" source="lAcjd4QDv3iJvigD0zD8-65" target="OD_EQrSQqGv5YOoiEvNP-0">
          <mxGeometry relative="1" as="geometry">
            <Array as="points">
              <mxPoint x="241" y="420" />
              <mxPoint x="241" y="435" />
            </Array>
          </mxGeometry>
        </mxCell>
        <mxCell id="dft-1AxIRIs8jOk2YddE-2" value="" style="edgeStyle=orthogonalEdgeStyle;rounded=0;orthogonalLoop=1;jettySize=auto;html=1;entryX=0;entryY=0.5;entryDx=0;entryDy=0;exitX=0.998;exitY=0.467;exitDx=0;exitDy=0;exitPerimeter=0;" edge="1" parent="lAcjd4QDv3iJvigD0zD8-1" source="lAcjd4QDv3iJvigD0zD8-65" target="r-C9Oc5S5O7B7vPJe_3U-2">
          <mxGeometry relative="1" as="geometry">
            <mxPoint x="491" y="415" as="targetPoint" />
            <Array as="points">
              <mxPoint x="501" y="415" />
              <mxPoint x="501" y="295" />
            </Array>
          </mxGeometry>
        </mxCell>
        <mxCell id="lAcjd4QDv3iJvigD0zD8-65" value="&lt;font style=&quot;font-size: 16px&quot;&gt;PK: id&lt;/font&gt;" style="rounded=1;whiteSpace=wrap;html=1;fillColor=#f8cecc;strokeColor=#b85450;" vertex="1" parent="lAcjd4QDv3iJvigD0zD8-1">
          <mxGeometry x="291" y="400" width="120" height="30" as="geometry" />
        </mxCell>
        <mxCell id="lAcjd4QDv3iJvigD0zD8-66" value="&lt;font style=&quot;font-size: 16px&quot;&gt;content&lt;/font&gt;" style="rounded=1;whiteSpace=wrap;html=1;fillColor=#ffe6cc;strokeColor=#d79b00;" vertex="1" parent="lAcjd4QDv3iJvigD0zD8-1">
          <mxGeometry x="81" y="480" width="120" height="30" as="geometry" />
        </mxCell>
        <mxCell id="lAcjd4QDv3iJvigD0zD8-67" value="&lt;font style=&quot;font-size: 16px&quot;&gt;content&lt;/font&gt;" style="rounded=1;whiteSpace=wrap;html=1;fillColor=#ffe6cc;strokeColor=#d79b00;" vertex="1" parent="lAcjd4QDv3iJvigD0zD8-1">
          <mxGeometry x="531" y="450" width="120" height="30" as="geometry" />
        </mxCell>
        <mxCell id="lAcjd4QDv3iJvigD0zD8-90" value="" style="edgeStyle=orthogonalEdgeStyle;rounded=0;orthogonalLoop=1;jettySize=auto;html=1;entryX=0;entryY=0.5;entryDx=0;entryDy=0;exitX=0;exitY=0.5;exitDx=0;exitDy=0;" edge="1" parent="lAcjd4QDv3iJvigD0zD8-1" source="lAcjd4QDv3iJvigD0zD8-68" target="lAcjd4QDv3iJvigD0zD8-84">
          <mxGeometry relative="1" as="geometry">
            <Array as="points">
              <mxPoint x="41" y="465" />
              <mxPoint x="41" y="295" />
            </Array>
          </mxGeometry>
        </mxCell>
        <mxCell id="lAcjd4QDv3iJvigD0zD8-92" value="" style="edgeStyle=orthogonalEdgeStyle;rounded=0;orthogonalLoop=1;jettySize=auto;html=1;entryX=0;entryY=0.5;entryDx=0;entryDy=0;exitX=1;exitY=0.5;exitDx=0;exitDy=0;" edge="1" parent="lAcjd4QDv3iJvigD0zD8-1" source="lAcjd4QDv3iJvigD0zD8-68" target="lAcjd4QDv3iJvigD0zD8-91">
          <mxGeometry relative="1" as="geometry">
            <mxPoint x="201" y="473" as="sourcePoint" />
            <Array as="points">
              <mxPoint x="241" y="465" />
              <mxPoint x="241" y="615" />
            </Array>
          </mxGeometry>
        </mxCell>
        <mxCell id="lAcjd4QDv3iJvigD0zD8-68" value="&lt;font style=&quot;font-size: 16px&quot;&gt;PK: id&lt;/font&gt;" style="rounded=1;whiteSpace=wrap;html=1;fillColor=#f8cecc;strokeColor=#b85450;" vertex="1" parent="lAcjd4QDv3iJvigD0zD8-1">
          <mxGeometry x="81" y="450" width="120" height="30" as="geometry" />
        </mxCell>
        <mxCell id="lAcjd4QDv3iJvigD0zD8-69" value="&lt;font style=&quot;font-size: 16px&quot;&gt;PK: id&lt;/font&gt;" style="rounded=1;whiteSpace=wrap;html=1;fillColor=#f8cecc;strokeColor=#b85450;" vertex="1" parent="lAcjd4QDv3iJvigD0zD8-1">
          <mxGeometry x="531" y="420" width="120" height="30" as="geometry" />
        </mxCell>
        <mxCell id="lAcjd4QDv3iJvigD0zD8-70" value="&lt;font style=&quot;font-size: 16px&quot;&gt;created_at&lt;/font&gt;" style="rounded=1;whiteSpace=wrap;html=1;fillColor=#ffe6cc;strokeColor=#d79b00;" vertex="1" parent="lAcjd4QDv3iJvigD0zD8-1">
          <mxGeometry x="81" y="510" width="120" height="30" as="geometry" />
        </mxCell>
        <mxCell id="lAcjd4QDv3iJvigD0zD8-71" value="&lt;font style=&quot;font-size: 16px&quot;&gt;updated_at&lt;/font&gt;" style="rounded=1;whiteSpace=wrap;html=1;fillColor=#ffe6cc;strokeColor=#d79b00;" vertex="1" parent="lAcjd4QDv3iJvigD0zD8-1">
          <mxGeometry x="81" y="540" width="120" height="30" as="geometry" />
        </mxCell>
        <mxCell id="lAcjd4QDv3iJvigD0zD8-72" value="&lt;font style=&quot;font-size: 16px&quot;&gt;deleted_at&lt;/font&gt;" style="rounded=1;whiteSpace=wrap;html=1;fillColor=#ffe6cc;strokeColor=#d79b00;" vertex="1" parent="lAcjd4QDv3iJvigD0zD8-1">
          <mxGeometry x="81" y="570" width="120" height="30" as="geometry" />
        </mxCell>
        <mxCell id="lAcjd4QDv3iJvigD0zD8-73" value="&lt;font style=&quot;font-size: 16px&quot;&gt;created_at&lt;/font&gt;" style="rounded=1;whiteSpace=wrap;html=1;fillColor=#ffe6cc;strokeColor=#d79b00;" vertex="1" parent="lAcjd4QDv3iJvigD0zD8-1">
          <mxGeometry x="531" y="480" width="120" height="30" as="geometry" />
        </mxCell>
        <mxCell id="lAcjd4QDv3iJvigD0zD8-74" value="&lt;font style=&quot;font-size: 16px&quot;&gt;updated_at&lt;/font&gt;" style="rounded=1;whiteSpace=wrap;html=1;fillColor=#ffe6cc;strokeColor=#d79b00;" vertex="1" parent="lAcjd4QDv3iJvigD0zD8-1">
          <mxGeometry x="531" y="510" width="120" height="30" as="geometry" />
        </mxCell>
        <mxCell id="lAcjd4QDv3iJvigD0zD8-75" value="&lt;font style=&quot;font-size: 16px&quot;&gt;deleted_at&lt;/font&gt;" style="rounded=1;whiteSpace=wrap;html=1;fillColor=#ffe6cc;strokeColor=#d79b00;" vertex="1" parent="lAcjd4QDv3iJvigD0zD8-1">
          <mxGeometry x="531" y="540" width="120" height="30" as="geometry" />
        </mxCell>
        <mxCell id="lAcjd4QDv3iJvigD0zD8-76" value="&lt;span style=&quot;font-size: 16px&quot;&gt;likes&lt;/span&gt;" style="rounded=1;whiteSpace=wrap;html=1;fillColor=#ffe6cc;strokeColor=#d79b00;" vertex="1" parent="lAcjd4QDv3iJvigD0zD8-1">
          <mxGeometry x="81" y="600" width="120" height="30" as="geometry" />
        </mxCell>
        <mxCell id="lAcjd4QDv3iJvigD0zD8-77" value="&lt;font style=&quot;font-size: 16px&quot;&gt;PK: id&lt;/font&gt;" style="rounded=1;whiteSpace=wrap;html=1;fillColor=#f8cecc;strokeColor=#b85450;" vertex="1" parent="lAcjd4QDv3iJvigD0zD8-1">
          <mxGeometry x="81" y="220" width="120" height="30" as="geometry" />
        </mxCell>
        <mxCell id="lAcjd4QDv3iJvigD0zD8-78" value="&lt;font style=&quot;font-size: 16px&quot;&gt;PK: id&lt;/font&gt;" style="rounded=1;whiteSpace=wrap;html=1;fillColor=#f8cecc;strokeColor=#b85450;" vertex="1" parent="lAcjd4QDv3iJvigD0zD8-1">
          <mxGeometry x="531" y="220" width="120" height="30" as="geometry" />
        </mxCell>
        <mxCell id="lAcjd4QDv3iJvigD0zD8-79" value="&lt;font style=&quot;font-size: 16px&quot;&gt;FK: user_id&lt;/font&gt;" style="rounded=1;whiteSpace=wrap;html=1;fillColor=#dae8fc;strokeColor=#6c8ebf;" vertex="1" parent="lAcjd4QDv3iJvigD0zD8-1">
          <mxGeometry x="81" y="250" width="120" height="30" as="geometry" />
        </mxCell>
        <mxCell id="lAcjd4QDv3iJvigD0zD8-83" value="&lt;font style=&quot;font-size: 18px&quot;&gt;1&lt;/font&gt;" style="text;html=1;strokeColor=none;fillColor=none;align=center;verticalAlign=middle;whiteSpace=wrap;rounded=0;" vertex="1" parent="lAcjd4QDv3iJvigD0zD8-1">
          <mxGeometry x="251" y="394" width="40" height="20" as="geometry" />
        </mxCell>
        <mxCell id="lAcjd4QDv3iJvigD0zD8-84" value="&lt;font style=&quot;font-size: 16px&quot;&gt;FK: tweet_id&lt;/font&gt;" style="rounded=1;whiteSpace=wrap;html=1;fillColor=#dae8fc;strokeColor=#6c8ebf;" vertex="1" parent="lAcjd4QDv3iJvigD0zD8-1">
          <mxGeometry x="81" y="280" width="120" height="30" as="geometry" />
        </mxCell>
        <mxCell id="lAcjd4QDv3iJvigD0zD8-87" value="&lt;font style=&quot;font-size: 18px&quot;&gt;1&lt;/font&gt;" style="text;html=1;strokeColor=none;fillColor=none;align=center;verticalAlign=middle;whiteSpace=wrap;rounded=0;" vertex="1" parent="lAcjd4QDv3iJvigD0zD8-1">
          <mxGeometry x="41" y="446" width="40" height="20" as="geometry" />
        </mxCell>
        <mxCell id="lAcjd4QDv3iJvigD0zD8-88" value="&lt;font style=&quot;font-size: 18px&quot;&gt;M&lt;/font&gt;" style="text;html=1;strokeColor=none;fillColor=none;align=center;verticalAlign=middle;whiteSpace=wrap;rounded=0;" vertex="1" parent="lAcjd4QDv3iJvigD0zD8-1">
          <mxGeometry x="40" y="275" width="40" height="20" as="geometry" />
        </mxCell>
        <mxCell id="lAcjd4QDv3iJvigD0zD8-91" value="&lt;font style=&quot;font-size: 16px&quot;&gt;FK: tweet_id&lt;/font&gt;" style="rounded=1;whiteSpace=wrap;html=1;fillColor=#dae8fc;strokeColor=#6c8ebf;" vertex="1" parent="lAcjd4QDv3iJvigD0zD8-1">
          <mxGeometry x="531" y="600" width="120" height="30" as="geometry" />
        </mxCell>
        <mxCell id="lAcjd4QDv3iJvigD0zD8-93" value="&lt;font style=&quot;font-size: 18px&quot;&gt;1&lt;/font&gt;" style="text;html=1;strokeColor=none;fillColor=none;align=center;verticalAlign=middle;whiteSpace=wrap;rounded=0;" vertex="1" parent="lAcjd4QDv3iJvigD0zD8-1">
          <mxGeometry x="201" y="468" width="40" height="20" as="geometry" />
        </mxCell>
        <mxCell id="lAcjd4QDv3iJvigD0zD8-94" value="&lt;font style=&quot;font-size: 18px&quot;&gt;M&lt;/font&gt;" style="text;html=1;strokeColor=none;fillColor=none;align=center;verticalAlign=middle;whiteSpace=wrap;rounded=0;" vertex="1" parent="lAcjd4QDv3iJvigD0zD8-1">
          <mxGeometry x="481" y="595" width="40" height="20" as="geometry" />
        </mxCell>
        <mxCell id="lAcjd4QDv3iJvigD0zD8-96" value="&lt;font style=&quot;font-size: 16px&quot;&gt;FK: user_id&lt;/font&gt;" style="rounded=1;whiteSpace=wrap;html=1;fillColor=#dae8fc;strokeColor=#6c8ebf;" vertex="1" parent="lAcjd4QDv3iJvigD0zD8-1">
          <mxGeometry x="531" y="570" width="120" height="30" as="geometry" />
        </mxCell>
        <mxCell id="lAcjd4QDv3iJvigD0zD8-98" value="&lt;font style=&quot;font-size: 18px&quot;&gt;M&lt;/font&gt;" style="text;html=1;strokeColor=none;fillColor=none;align=center;verticalAlign=middle;whiteSpace=wrap;rounded=0;" vertex="1" parent="lAcjd4QDv3iJvigD0zD8-1">
          <mxGeometry x="491" y="565" width="40" height="20" as="geometry" />
        </mxCell>
        <mxCell id="lAcjd4QDv3iJvigD0zD8-99" value="&lt;font style=&quot;font-size: 18px&quot;&gt;1&lt;/font&gt;" style="text;html=1;strokeColor=none;fillColor=none;align=center;verticalAlign=middle;whiteSpace=wrap;rounded=0;" vertex="1" parent="lAcjd4QDv3iJvigD0zD8-1">
          <mxGeometry x="421" y="426" width="40" height="20" as="geometry" />
        </mxCell>
        <mxCell id="r-C9Oc5S5O7B7vPJe_3U-0" value="&lt;font style=&quot;font-size: 16px&quot;&gt;FK: user_id&lt;/font&gt;" style="rounded=1;whiteSpace=wrap;html=1;fillColor=#dae8fc;strokeColor=#6c8ebf;" vertex="1" parent="lAcjd4QDv3iJvigD0zD8-1">
          <mxGeometry x="531" y="250" width="120" height="30" as="geometry" />
        </mxCell>
        <mxCell id="r-C9Oc5S5O7B7vPJe_3U-2" value="&lt;font style=&quot;font-size: 16px&quot;&gt;FK: follower_id&lt;/font&gt;" style="rounded=1;whiteSpace=wrap;html=1;fillColor=#dae8fc;strokeColor=#6c8ebf;" vertex="1" parent="lAcjd4QDv3iJvigD0zD8-1">
          <mxGeometry x="531" y="280" width="120" height="30" as="geometry" />
        </mxCell>
        <mxCell id="r-C9Oc5S5O7B7vPJe_3U-10" value="&lt;font style=&quot;font-size: 18px&quot;&gt;M&lt;/font&gt;" style="text;html=1;strokeColor=none;fillColor=none;align=center;verticalAlign=middle;whiteSpace=wrap;rounded=0;" vertex="1" parent="lAcjd4QDv3iJvigD0zD8-1">
          <mxGeometry x="481" y="245" width="40" height="20" as="geometry" />
        </mxCell>
        <mxCell id="r-C9Oc5S5O7B7vPJe_3U-11" value="" style="edgeStyle=orthogonalEdgeStyle;rounded=0;orthogonalLoop=1;jettySize=auto;html=1;startArrow=none;endArrow=none;exitX=1;exitY=0.271;exitDx=0;exitDy=0;exitPerimeter=0;" edge="1" parent="lAcjd4QDv3iJvigD0zD8-1" source="lAcjd4QDv3iJvigD0zD8-65">
          <mxGeometry relative="1" as="geometry">
            <mxPoint x="411" y="415" as="sourcePoint" />
            <mxPoint x="481" y="278" as="targetPoint" />
            <Array as="points">
              <mxPoint x="481" y="408" />
            </Array>
          </mxGeometry>
        </mxCell>
        <mxCell id="OD_EQrSQqGv5YOoiEvNP-0" value="&lt;font style=&quot;font-size: 16px&quot;&gt;FK: user_id&lt;/font&gt;" style="rounded=1;whiteSpace=wrap;html=1;fillColor=#dae8fc;strokeColor=#6c8ebf;" vertex="1" parent="lAcjd4QDv3iJvigD0zD8-1">
          <mxGeometry x="81" y="420" width="120" height="30" as="geometry" />
        </mxCell>
        <mxCell id="OD_EQrSQqGv5YOoiEvNP-2" value="&lt;font style=&quot;font-size: 18px&quot;&gt;1&lt;/font&gt;" style="text;html=1;strokeColor=none;fillColor=none;align=center;verticalAlign=middle;whiteSpace=wrap;rounded=0;" vertex="1" parent="lAcjd4QDv3iJvigD0zD8-1">
          <mxGeometry x="251" y="425" width="40" height="20" as="geometry" />
        </mxCell>
        <mxCell id="OD_EQrSQqGv5YOoiEvNP-3" value="&lt;font style=&quot;font-size: 18px&quot;&gt;M&lt;/font&gt;" style="text;html=1;strokeColor=none;fillColor=none;align=center;verticalAlign=middle;whiteSpace=wrap;rounded=0;" vertex="1" parent="lAcjd4QDv3iJvigD0zD8-1">
          <mxGeometry x="201" y="414" width="40" height="20" as="geometry" />
        </mxCell>
        <mxCell id="dft-1AxIRIs8jOk2YddE-0" value="&lt;font style=&quot;font-size: 18px&quot;&gt;M&lt;/font&gt;" style="text;html=1;strokeColor=none;fillColor=none;align=center;verticalAlign=middle;whiteSpace=wrap;rounded=0;" vertex="1" parent="lAcjd4QDv3iJvigD0zD8-1">
          <mxGeometry x="211" y="245" width="40" height="20" as="geometry" />
        </mxCell>
        <mxCell id="dft-1AxIRIs8jOk2YddE-3" value="&lt;font style=&quot;font-size: 18px&quot;&gt;M&lt;/font&gt;" style="text;html=1;strokeColor=none;fillColor=none;align=center;verticalAlign=middle;whiteSpace=wrap;rounded=0;" vertex="1" parent="lAcjd4QDv3iJvigD0zD8-1">
          <mxGeometry x="491" y="275" width="40" height="20" as="geometry" />
        </mxCell>
        <mxCell id="dft-1AxIRIs8jOk2YddE-4" value="&lt;font style=&quot;font-size: 18px&quot;&gt;1&lt;/font&gt;" style="text;html=1;strokeColor=none;fillColor=none;align=center;verticalAlign=middle;whiteSpace=wrap;rounded=0;" vertex="1" parent="lAcjd4QDv3iJvigD0zD8-1">
          <mxGeometry x="411" y="390" width="40" height="20" as="geometry" />
        </mxCell>
        <mxCell id="dft-1AxIRIs8jOk2YddE-5" value="&lt;font style=&quot;font-size: 18px&quot;&gt;1&lt;/font&gt;" style="text;html=1;strokeColor=none;fillColor=none;align=center;verticalAlign=middle;whiteSpace=wrap;rounded=0;" vertex="1" parent="lAcjd4QDv3iJvigD0zD8-1">
          <mxGeometry x="421" y="400" width="40" height="20" as="geometry" />
        </mxCell>
      </root>
    </mxGraphModel>
  </diagram>
</mxfile>
